<svg aria-hidden="true" xmlns="http://www.w3.org/2000/svg" xmlns:xlink="http://www.w3.org/1999/xlink">
<symbol viewBox="0 0 25 24" fill="none" id="courses" xmlns="http://www.w3.org/2000/svg">
<path d="M2.92969 14.954L1.06509 14.5426C0.518604 15.6452 0 16.8837 0 18.3105C0 19.7101 0.497607 20.9336 1.06509 22.0785L7.37305 20.687V23.4312L9.57031 22.3325L11.7676 23.4312V20.6884L18.0263 22.0792C18.5686 20.9853 19.0918 19.7435 19.0918 18.3105C19.0918 18.0636 19.0735 17.8177 19.0428 17.5781H25V0H2.92969V14.954ZM1.90088 20.394C1.71035 19.8902 1.46484 19.0898 1.46484 18.3105C1.46484 17.5312 1.7104 16.7307 1.90088 16.227L7.37305 17.4342V19.1869L1.90088 20.394ZM10.3027 21.061L9.57031 20.6948L8.83789 21.061V17.5781H10.3027V21.061ZM17.1913 20.3931L11.7676 19.1878V17.4332L17.1913 16.2279C17.3817 16.7318 17.627 17.5317 17.627 18.3105C17.627 19.0895 17.3817 19.8895 17.1913 20.3931ZM23.5352 1.46484V16.1133H18.7038C18.4637 15.3788 18.2701 15.0319 18.0263 14.5418L10.9548 16.1133H8.18535L4.39453 15.277V1.46484H23.5352Z" fill="currentColor"/>
<path d="M8.83789 2.92969H19.0918V4.39453H8.83789V2.92969Z" fill="currentColor"/>
<path d="M5.85938 8.78906H22.0703V10.2539H5.85938V8.78906Z" fill="currentColor"/>
<path d="M8.83789 11.7188H19.0918V13.1836H8.83789V11.7188Z" fill="currentColor"/>
<path d="M10.3027 5.85938H11.7676V7.32422H10.3027V5.85938Z" fill="currentColor"/>
<path d="M13.2324 5.85938H14.6973V7.32422H13.2324V5.85938Z" fill="currentColor"/>
<path d="M16.1621 5.85938H17.627V7.32422H16.1621V5.85938Z" fill="currentColor"/>
</symbol>
<symbol viewBox="0 0 46 65" fill="none" id="css3" xmlns="http://www.w3.org/2000/svg">
<path d="M22.9719 65L4.18634 59.7793L0 12.7742H46.0001L41.8093 59.7722L22.9719 65Z" fill="#4353AD"/>
<path d="M38.2216 56.7794L41.8025 16.6177H22.9999V61.0039L38.2216 56.7794Z" fill="#485FB5"/>
<path d="M23 49.0235L22.9747 49.03L16.5613 47.2964L16.1513 42.6987H10.3704L11.1771 51.7505L22.9735 55.0288L23 55.0215V49.0235ZM8.55991 22.3827L9.08337 28.1476H23V22.3827H8.55991ZM9.59704 34.051L10.1131 39.816H23V34.051H9.59704Z" fill="#EDEDED"/>
<path d="M27.5654 6.38962e-05H34.5403V2.53905H30.4824V3.04709H34.5403V8.88672H27.5654V6.22052H31.6236V5.71288H27.5656V6.38962e-05H27.5654ZM19.1956 6.38962e-05H26.1703V2.53905H22.1124V3.04709H26.1703V8.88672H19.1958V6.22052H23.2538V5.71288H19.1955V6.38962e-05H19.1956ZM10.8259 6.38962e-05H17.8005V2.91988H13.7427V5.84009H17.8009V8.75991H10.8259V6.38962e-05Z" fill="#100F0D"/>
<path d="M36.3662 34.0512L37.4057 22.3829H22.9802V28.1477H31.0947L30.5708 34.0512H22.9802V39.8162H30.0715L29.4026 47.2932L22.98 49.0284V55.0261L34.7856 51.7507L34.872 50.7769L36.2257 35.5992L36.3662 34.0512Z" fill="white"/>
</symbol>
<symbol viewBox="0 0 25 21" fill="none" id="design" xmlns="http://www.w3.org/2000/svg">
<path d="M23.3871 0H1.6129C1.18531 0.000560118 0.775384 0.17067 0.473027 0.473027C0.17067 0.775384 0.000560118 1.18531 0 1.6129V15.3226C0.000560118 15.7502 0.17067 16.1601 0.473027 16.4625C0.775384 16.7648 1.18531 16.9349 1.6129 16.9355H9.92439L9.38659 18.5484H8.06452C7.95757 18.5484 7.85501 18.5909 7.77939 18.6665C7.70377 18.7421 7.66129 18.8447 7.66129 18.9516V19.7581H4.03226C3.92532 19.7581 3.82275 19.8005 3.74713 19.8762C3.67151 19.9518 3.62903 20.0543 3.62903 20.1613C3.62903 20.2682 3.67151 20.3708 3.74713 20.4464C3.82275 20.522 3.92532 20.5645 4.03226 20.5645H21.7742C21.8811 20.5645 21.9837 20.522 22.0593 20.4464C22.1349 20.3708 22.1774 20.2682 22.1774 20.1613C22.1774 20.0543 22.1349 19.9518 22.0593 19.8762C21.9837 19.8005 21.8811 19.7581 21.7742 19.7581H17.3387V18.9516C17.3387 18.8447 17.2962 18.7421 17.2206 18.6665C17.145 18.5909 17.0424 18.5484 16.9355 18.5484H15.6134L15.0756 16.9355H23.3871C23.8147 16.9349 24.2246 16.7648 24.527 16.4625C24.8293 16.1601 24.9994 15.7502 25 15.3226V1.6129C24.9994 1.18531 24.8293 0.775384 24.527 0.473027C24.2246 0.17067 23.8147 0.000560118 23.3871 0ZM16.5323 19.3548V19.7581H8.46774V19.3548H16.5323ZM10.2369 18.5484L10.7747 16.9355H14.2253L14.7631 18.5484H10.2369ZM24.1935 15.3226C24.1933 15.5364 24.1082 15.7413 23.957 15.8925C23.8059 16.0437 23.6009 16.1288 23.3871 16.129H1.6129C1.3991 16.1288 1.19414 16.0437 1.04297 15.8925C0.891787 15.7413 0.806732 15.5364 0.806452 15.3226V14.5161H24.1935V15.3226ZM6.8377 10.0806L6.68649 13.7097H6.21673L6.06552 10.0806H6.8377ZM6.12097 9.27419L6.39012 7.66129H6.5131L6.78226 9.27419H6.12097ZM6.45161 6.85484C6.01462 6.85484 5.64516 6.30091 5.64516 5.64516C5.64516 5.23135 6.06754 4.63004 6.4506 4.20615C6.79587 4.58921 7.25806 5.20161 7.25806 5.64516C7.25806 6.30091 6.88861 6.85484 6.45161 6.85484ZM10.8397 6.04839L10.8871 6.14365V6.45161H9.27419V6.14365L9.32157 6.04839H10.8397ZM9.7248 5.24194L10.0806 4.53075L10.4365 5.24194H9.7248ZM10.8871 7.25806V13.6593C10.8873 13.6761 10.8884 13.693 10.8906 13.7097H9.27067C9.27286 13.693 9.27404 13.6761 9.27419 13.6593V7.25806H10.8871ZM14.5161 5.64516H15.7258V6.45161H15.3226C15.2156 6.45161 15.1131 6.4941 15.0375 6.56971C14.9618 6.64533 14.9194 6.7479 14.9194 6.85484C14.9194 6.96178 14.9618 7.06434 15.0375 7.13996C15.1131 7.21558 15.2156 7.25806 15.3226 7.25806H15.7258V8.06452H14.5161C14.4092 8.06452 14.3066 8.107 14.231 8.18262C14.1554 8.25824 14.1129 8.3608 14.1129 8.46774C14.1129 8.57468 14.1554 8.67725 14.231 8.75287C14.3066 8.82849 14.4092 8.87097 14.5161 8.87097H15.7258V9.67742H15.3226C15.2156 9.67742 15.1131 9.7199 15.0375 9.79552C14.9618 9.87114 14.9194 9.9737 14.9194 10.0806C14.9194 10.1876 14.9618 10.2901 15.0375 10.3658C15.1131 10.4414 15.2156 10.4839 15.3226 10.4839H15.7258V11.2903H14.5161C14.4092 11.2903 14.3066 11.3328 14.231 11.4084C14.1554 11.484 14.1129 11.5866 14.1129 11.6935C14.1129 11.8005 14.1554 11.9031 14.231 11.9787C14.3066 12.0543 14.4092 12.0968 14.5161 12.0968H15.7258V13.7097H12.9032V4.03226H15.7258V4.83871H14.5161C14.4092 4.83871 14.3066 4.88119 14.231 4.95681C14.1554 5.03243 14.1129 5.13499 14.1129 5.24194C14.1129 5.34888 14.1554 5.45144 14.231 5.52706C14.3066 5.60268 14.4092 5.64516 14.5161 5.64516ZM19.3548 10.4839V13.6593C19.355 13.6761 19.3562 13.693 19.3584 13.7097H17.7384C17.7406 13.693 17.7418 13.6761 17.7419 13.6593V10.4839H19.3548ZM17.7419 9.67742V9.36946L18.5484 7.75655L19.3548 9.36946V9.67742H17.7419ZM24.1935 13.7097H20.1578C20.16 13.693 20.1611 13.6761 20.1613 13.6593V9.27419C20.1612 9.21159 20.1467 9.14985 20.119 9.09375L18.9093 6.6744C18.8757 6.60743 18.8242 6.55113 18.7604 6.51178C18.6967 6.47243 18.6233 6.4516 18.5484 6.4516C18.4735 6.4516 18.4001 6.47243 18.3363 6.51178C18.2726 6.55113 18.2211 6.60743 18.1875 6.6744L16.9778 9.09375C16.95 9.14985 16.9355 9.21159 16.9355 9.27419V13.6593C16.9356 13.6761 16.9368 13.693 16.939 13.7097H16.5323V3.62903C16.5323 3.52209 16.4898 3.41953 16.4142 3.34391C16.3385 3.26829 16.236 3.22581 16.129 3.22581H12.5C12.3931 3.22581 12.2905 3.26829 12.2149 3.34391C12.1393 3.41953 12.0968 3.52209 12.0968 3.62903V13.7097H11.69C11.6922 13.693 11.6934 13.6761 11.6935 13.6593V6.04839C11.6935 5.98579 11.679 5.92404 11.6512 5.86794L10.4415 3.44859C10.408 3.38163 10.3564 3.32532 10.2927 3.28598C10.229 3.24663 10.1555 3.22579 10.0806 3.22579C10.0057 3.22579 9.93232 3.24663 9.86858 3.28598C9.80485 3.32532 9.75332 3.38163 9.71976 3.44859L8.51008 5.86794C8.48229 5.92404 8.4678 5.98579 8.46774 6.04839V13.6593C8.4679 13.6761 8.46908 13.693 8.47127 13.7097H7.49345L7.66079 9.69405C7.66129 9.68498 7.66079 9.67591 7.66079 9.66633V9.65423C7.65985 9.64004 7.65817 9.62591 7.65575 9.61189V9.61089L7.28276 7.37248C7.75101 7.01915 8.06452 6.37702 8.06452 5.64516C8.06452 4.60887 6.86341 3.46119 6.72631 3.33367C6.6516 3.26442 6.55348 3.22594 6.45161 3.22594C6.34974 3.22594 6.25163 3.26442 6.17692 3.33367C6.03982 3.46119 4.83871 4.60887 4.83871 5.64516C4.83871 6.37702 5.15222 7.01915 5.62046 7.37248L5.24748 9.61089V9.61189C5.24506 9.62591 5.24337 9.64004 5.24244 9.65423V9.66633C5.24244 9.67591 5.24194 9.68498 5.24244 9.69405L5.40978 13.7097H0.806452V1.6129C0.806732 1.3991 0.891787 1.19414 1.04297 1.04297C1.19414 0.891787 1.3991 0.806732 1.6129 0.806452H23.3871C23.6009 0.806732 23.8059 0.891787 23.957 1.04297C24.1082 1.19414 24.1933 1.3991 24.1935 1.6129V13.7097Z" fill="currentColor"/>
<path d="M4.4355 14.9193H2.01614C1.9092 14.9193 1.80664 14.9618 1.73102 15.0374C1.6554 15.113 1.61292 15.2156 1.61292 15.3225C1.61292 15.4295 1.6554 15.532 1.73102 15.6077C1.80664 15.6833 1.9092 15.7258 2.01614 15.7258H4.4355C4.54244 15.7258 4.645 15.6833 4.72062 15.6077C4.79624 15.532 4.83872 15.4295 4.83872 15.3225C4.83872 15.2156 4.79624 15.113 4.72062 15.0374C4.645 14.9618 4.54244 14.9193 4.4355 14.9193Z" fill="currentColor"/>
<path d="M6.04839 14.9193H5.64517C5.53823 14.9193 5.43567 14.9618 5.36005 15.0374C5.28443 15.113 5.24194 15.2156 5.24194 15.3225C5.24194 15.4295 5.28443 15.532 5.36005 15.6077C5.43567 15.6833 5.53823 15.7258 5.64517 15.7258H6.04839C6.15534 15.7258 6.2579 15.6833 6.33352 15.6077C6.40914 15.532 6.45162 15.4295 6.45162 15.3225C6.45162 15.2156 6.40914 15.113 6.33352 15.0374C6.2579 14.9618 6.15534 14.9193 6.04839 14.9193Z" fill="currentColor"/>
<path d="M10.0807 7.66125C9.97371 7.66125 9.87115 7.70374 9.79553 7.77936C9.71991 7.85498 9.67743 7.95754 9.67743 8.06448V12.5C9.67743 12.6069 9.71991 12.7095 9.79553 12.7851C9.87115 12.8607 9.97371 12.9032 10.0807 12.9032C10.1876 12.9032 10.2902 12.8607 10.3658 12.7851C10.4414 12.7095 10.4839 12.6069 10.4839 12.5V8.06448C10.4839 7.95754 10.4414 7.85498 10.3658 7.77936C10.2902 7.70374 10.1876 7.66125 10.0807 7.66125Z" fill="currentColor"/>
<path d="M18.5484 10.8871C18.4414 10.8871 18.3389 10.9296 18.2632 11.0052C18.1876 11.0808 18.1451 11.1834 18.1451 11.2903V12.5C18.1451 12.6069 18.1876 12.7095 18.2632 12.7851C18.3389 12.8607 18.4414 12.9032 18.5484 12.9032C18.6553 12.9032 18.7579 12.8607 18.8335 12.7851C18.9091 12.7095 18.9516 12.6069 18.9516 12.5V11.2903C18.9516 11.1834 18.9091 11.0808 18.8335 11.0052C18.7579 10.9296 18.6553 10.8871 18.5484 10.8871Z" fill="currentColor"/>
<path d="M2.01614 2.41937H5.24195C5.34889 2.41937 5.45145 2.37688 5.52707 2.30126C5.60269 2.22564 5.64517 2.12308 5.64517 2.01614C5.64517 1.9092 5.60269 1.80664 5.52707 1.73102C5.45145 1.6554 5.34889 1.61292 5.24195 1.61292H2.01614C1.9092 1.61292 1.80664 1.6554 1.73102 1.73102C1.6554 1.80664 1.61292 1.9092 1.61292 2.01614C1.61292 2.12308 1.6554 2.22564 1.73102 2.30126C1.80664 2.37688 1.9092 2.41937 2.01614 2.41937Z" fill="currentColor"/>
<path d="M2.01614 3.62908H2.82259C2.92953 3.62908 3.0321 3.5866 3.10772 3.51098C3.18334 3.43536 3.22582 3.3328 3.22582 3.22586C3.22582 3.11892 3.18334 3.01635 3.10772 2.94073C3.0321 2.86511 2.92953 2.82263 2.82259 2.82263H2.01614C1.9092 2.82263 1.80664 2.86511 1.73102 2.94073C1.6554 3.01635 1.61292 3.11892 1.61292 3.22586C1.61292 3.3328 1.6554 3.43536 1.73102 3.51098C1.80664 3.5866 1.9092 3.62908 2.01614 3.62908Z" fill="currentColor"/>
<path d="M21.3709 12.9033H22.9838C23.0908 12.9033 23.1933 12.8608 23.269 12.7852C23.3446 12.7095 23.3871 12.607 23.3871 12.5C23.3871 12.3931 23.3446 12.2905 23.269 12.2149C23.1933 12.1393 23.0908 12.0968 22.9838 12.0968H21.3709C21.264 12.0968 21.1614 12.1393 21.0858 12.2149C21.0102 12.2905 20.9677 12.3931 20.9677 12.5C20.9677 12.607 21.0102 12.7095 21.0858 12.7852C21.1614 12.8608 21.264 12.9033 21.3709 12.9033Z" fill="currentColor"/>
<path d="M22.5807 11.6935H22.9839C23.0908 11.6935 23.1934 11.6511 23.269 11.5754C23.3446 11.4998 23.3871 11.3973 23.3871 11.2903C23.3871 11.1834 23.3446 11.0808 23.269 11.0052C23.1934 10.9296 23.0908 10.8871 22.9839 10.8871H22.5807C22.4737 10.8871 22.3712 10.9296 22.2955 11.0052C22.2199 11.0808 22.1774 11.1834 22.1774 11.2903C22.1774 11.3973 22.2199 11.4998 22.2955 11.5754C22.3712 11.6511 22.4737 11.6935 22.5807 11.6935Z" fill="currentColor"/>
</symbol>
<symbol viewBox="0 0 25 25" fill="none" id="developer" xmlns="http://www.w3.org/2000/svg">
<path d="M22.5 3.75H11.25V4.58333H22.5V3.75Z" fill="currentColor"/>
<path d="M18.3333 5.41663H11.25V6.24996H18.3333V5.41663Z" fill="currentColor"/>
<path d="M18.3333 7.08337H11.25V7.91671H18.3333V7.08337Z" fill="currentColor"/>
<path d="M22.5 2.08337H14.5833V2.91671H22.5V2.08337Z" fill="currentColor"/>
<path d="M13.75 2.08337H12.9167V2.91671H13.75V2.08337Z" fill="currentColor"/>
<path d="M12.9166 16.6666H12.0833V17.5H12.9166V16.6666Z" fill="currentColor"/>
<path d="M6.96124 2.79461L6.37207 2.20544L5.53874 3.03878C5.37608 3.20149 5.37608 3.46524 5.53874 3.62794L6.37207 4.46128L6.96124 3.87211L6.42249 3.33336L6.96124 2.79461Z" fill="currentColor"/>
<path d="M10.2946 3.03878L9.46124 2.20544L8.87207 2.79461L9.41082 3.33336L8.87207 3.87211L9.46124 4.46128L10.2946 3.62794C10.4572 3.46524 10.4572 3.20149 10.2946 3.03878Z" fill="currentColor"/>
<path d="M7.93836 1.95109L7.10425 4.45105L7.89435 4.71467L8.72846 2.21471L7.93836 1.95109Z" fill="currentColor"/>
<path d="M21.6667 12.9167V9.58333H20.8334V12.9167H20V8.75H19.1667V12.9167H18.3334V10.8333H17.5V12.9167H16.6667V10.4167H15.8334V12.9167H15V11.25H14.1667V12.9167H13.3334V13.75H22.5V12.9167H21.6667Z" fill="currentColor"/>
<path d="M22.0834 0H2.91669C1.53653 0.00135417 0.418041 1.11984 0.416687 2.5V10.6775V10.6812V15.4167V16.6667C0.418041 18.0468 1.53653 19.1653 2.91669 19.1667H8.07585L6.40919 22.5H4.16669C3.47632 22.5 2.91669 23.0596 2.91669 23.75C2.91669 24.4404 3.47632 25 4.16669 25H20.8334C21.5237 25 22.0834 24.4404 22.0834 23.75C22.0834 23.0596 21.5237 22.5 20.8334 22.5H18.5909L16.9242 19.1667H22.0834C23.4635 19.1653 24.582 18.0468 24.5834 16.6667V2.5C24.582 1.11984 23.4635 0.00135417 22.0834 0ZM1.25002 5.8625L2.1971 6.99C2.27627 7.08432 2.39315 7.13875 2.51627 7.13875H3.79169C3.91481 7.13875 4.03169 7.08432 4.11085 6.99L5.05835 5.8625L5.99335 6.16625L6.09669 7.63417C6.10523 7.75693 6.16762 7.86964 6.2671 7.94208L7.29919 8.69208C7.39903 8.76417 7.52549 8.7887 7.64502 8.75917L9.07544 8.40375L9.65377 9.19917L8.87419 10.4492C8.8096 10.554 8.79466 10.6819 8.83335 10.7987L9.22794 12.0117C9.26591 12.1286 9.35356 12.2229 9.46752 12.2692L10.8334 12.8229V13.8062L9.46669 14.36C9.35247 14.406 9.26466 14.5006 9.2271 14.6179L9.1021 15H6.70169C7.63544 13.045 6.80752 10.7032 4.85252 9.76943C3.70424 9.22099 2.36122 9.26359 1.25002 9.88375V5.8625ZM1.25002 10.875C2.59773 9.82359 4.54262 10.0638 5.59398 11.4116C6.40575 12.4521 6.46841 13.8929 5.75002 15H1.25002V10.875ZM20.8334 23.3333C21.0635 23.3333 21.25 23.5199 21.25 23.75C21.25 23.9801 21.0635 24.1667 20.8334 24.1667H4.16669C3.93658 24.1667 3.75002 23.9801 3.75002 23.75C3.75002 23.5199 3.93658 23.3333 4.16669 23.3333H20.8334ZM17.6592 22.5H7.34085L9.00752 19.1667H15.9925L17.6592 22.5ZM23.75 16.6667C23.75 17.5871 23.0038 18.3333 22.0834 18.3333H2.91669C1.99622 18.3333 1.25002 17.5871 1.25002 16.6667V15.8333H5.96752H5.97127H23.75V16.6667ZM23.75 15H10.1063L11.4067 14.4729C11.5638 14.4092 11.6666 14.2566 11.6667 14.0871V12.5417C11.6667 12.372 11.5639 12.2192 11.4067 12.1554L9.95835 11.5696L9.68419 10.7258L10.51 9.40083C10.5996 9.25688 10.593 9.07302 10.4934 8.93583L9.58502 7.68583C9.48528 7.54849 9.31226 7.48536 9.14752 7.52625L7.63252 7.90125L6.91669 7.38125L6.8071 5.82708C6.79518 5.65766 6.68158 5.5124 6.52002 5.46L5.05127 4.9825C4.88966 4.93104 4.71299 4.98182 4.60335 5.11125L3.60044 6.305H2.71169L1.70835 5.11125C1.59867 4.98167 1.42174 4.93083 1.26002 4.9825L1.25002 4.98625V2.5C1.25002 1.57953 1.99622 0.833333 2.91669 0.833333H22.0834C23.0038 0.833333 23.75 1.57953 23.75 2.5V15Z" fill="currentColor"/>
</symbol>
<symbol fill="#4353AD" viewBox="0 0 32 32" id="eslint" xmlns="http://www.w3.org/2000/svg">
  <path d="M9.677 12.177l6.077-3.511c0.152-0.088 0.339-0.088 0.491 0l6.077 3.511c0.151 0.088 0.245 0.249 0.245 0.427v7.016c0 0.177-0.095 0.339-0.245 0.427l-6.077 3.505c-0.152 0.088-0.339 0.088-0.491 0l-6.077-3.505c-0.151-0.088-0.245-0.249-0.245-0.427v-7.016c0-0.177 0.095-0.339 0.245-0.427zM31.803 15.375l-7.261-12.635c-0.265-0.459-0.749-0.792-1.281-0.792h-14.52c-0.527 0-1.016 0.333-1.281 0.792l-7.261 12.604c-0.26 0.463-0.26 1.031 0 1.489l7.267 12.531c0.26 0.459 0.749 0.688 1.276 0.688h14.525c0.527 0 1.011-0.224 1.276-0.683l7.261-12.547c0.265-0.448 0.265-1.005 0-1.448zM25.792 21.448c-0.005 0.188-0.109 0.359-0.271 0.453l-9.256 5.333c-0.161 0.093-0.359 0.093-0.52 0l-9.261-5.333c-0.161-0.095-0.265-0.265-0.271-0.453v-10.677c0-0.183 0.109-0.355 0.271-0.448l9.251-5.339c0.161-0.088 0.359-0.088 0.52 0l9.261 5.339c0.161 0.093 0.265 0.265 0.271 0.453z"/>
</symbol>
<symbol viewBox="0 0 20 20" fill="none" id="facebook" xmlns="http://www.w3.org/2000/svg">
<path d="M-7.46167e-07 2.92969L-1.28061e-07 17.0703C-5.74539e-08 18.6856 1.31439 20 2.92969 20L17.0703 20C18.6856 20 20 18.6856 20 17.0703L20 11.1719L12.9297 11.1719L12.9297 13.5156L9.41406 13.5156L9.41406 11.1719L7.03125 11.1719C5.09262 11.1719 3.51562 9.59488 3.51562 7.65625L3.51562 4.10156L7.03125 4.10156L7.03125 7.65625L9.41406 7.65625L9.41406 4.10156L12.9297 4.6875L12.9297 7.65625L20 7.65625L20 2.92969C20 1.31439 18.6856 -8.16774e-07 17.0703 -7.46167e-07L2.92969 -1.28061e-07C1.31439 -5.74539e-08 -8.16774e-07 1.31439 -7.46167e-07 2.92969Z" fill="currentColor"/>
</symbol>
<symbol viewBox="0 0 19 20" fill="none" id="github" xmlns="http://www.w3.org/2000/svg">
<path d="M-4.37114e-07 9.99951C-1.95608e-07 15.5245 4.36167 19.9995 9.74107 19.9995C14.0457 19.9995 17.6962 17.1345 18.9832 13.162C19.0749 12.662 18.7734 12.4787 18.5148 12.4787C18.2835 12.4787 17.6706 12.487 16.8585 12.4912C17.4459 15.2728 15.5517 15.8595 15.5517 15.8595C14.4274 16.3145 14.1267 16.972 14.1267 16.972C13.5228 17.8778 13.5352 16.902 13.5352 16.902C13.603 15.8978 14.5389 15.3703 14.5389 15.3703C16.0283 14.4787 15.5979 13.0295 15.3493 12.4578C14.719 12.3678 14.2903 12.1103 14.0466 11.8245C13.8029 14.0453 12.9652 16.3795 9.23304 16.3795C8.16988 16.3795 7.30085 15.992 6.61933 15.3503C6.37316 15.4628 5.3827 15.8003 4.04116 15.2628C4.04116 15.2628 3.78012 14.4253 5.03988 12.5128C4.82345 11.7128 4.71606 10.8628 4.7111 10.0128C4.71606 9.16284 4.82345 8.31285 5.03988 7.51284C3.78012 5.61285 4.04116 4.77535 4.04116 4.77535C5.3827 4.23785 6.37316 4.57534 6.61933 4.67535C7.30085 4.03785 8.16988 3.65035 9.23304 3.65035C12.9752 3.65035 13.7987 5.98784 14.0383 8.21284C14.3307 7.86284 14.928 7.53784 15.8408 7.53784C17.1444 7.53784 18.1918 7.55034 18.5082 7.55034C18.7635 7.55034 19.0683 7.37534 18.9708 6.86284C17.692 2.86201 14.0391 -0.000488895 9.74107 -0.000488707C4.36167 -0.000488472 -6.7851e-07 4.47701 -4.37114e-07 9.99951Z" fill="currentColor"/>
</symbol>
<symbol viewBox="0 0 46 65" fill="none" id="html5" xmlns="http://www.w3.org/2000/svg">
<path d="M4.16571 59.7793L0 12.774H45.7746L41.6044 59.7719L22.8592 65L4.16571 59.7793Z" fill="#E53D20"/>
<path d="M22.8873 61.0039L38.0343 56.7793L41.598 16.6174H22.8873V61.0039Z" fill="#F15123"/>
<path d="M22.8873 34.0511H15.3044L14.7806 28.1476H22.8873V22.3825H22.8675H8.51785L8.65507 23.9292L10.0635 39.8159H22.8873V34.0511Z" fill="#EDEDED"/>
<path d="M22.8873 49.0232L22.8622 49.03L16.4802 47.2962L16.072 42.6984H12.9709H10.3195L11.1224 51.7503L22.8609 55.0286L22.8873 55.0212V49.0232Z" fill="#EDEDED"/>
<path d="M4.25882 4.1008e-05H7.17105V2.89456H9.83493V4.1008e-05H12.7473V8.76538H9.83505V5.83029H7.17118V8.76538H4.25903V4.1008e-05H4.25882Z" fill="#100F0D"/>
<path d="M16.5769 2.90678H14.0131V4.1008e-05H22.0541V2.90678H19.4892V8.76538H16.5771V2.90678H16.5769Z" fill="#100F0D"/>
<path d="M23.3303 4.1008e-05H26.3669L28.2348 3.0799L30.1008 4.1008e-05H33.1386V8.76538H30.2384V4.42079L28.2348 7.53739H28.1848L26.1798 4.42079V8.76538H23.3303V4.1008e-05Z" fill="#100F0D"/>
<path d="M34.588 4.1008e-05H37.501V5.8681H41.5963V8.76538H34.588V4.1008e-05Z" fill="#100F0D"/>
<path d="M22.8675 34.0511V39.8159H29.9239L29.2588 47.2927L22.8675 49.0282V55.0259L34.6153 51.7504L34.7014 50.7765L36.0481 35.5991L36.1879 34.0511H34.6437H22.8675Z" fill="white"/>
<path d="M22.8675 22.3827V28.1477H36.691H36.7093L36.8243 26.8518L37.0854 23.9293L37.2224 22.3827H22.8675Z" fill="white"/>
</symbol>
<symbol viewBox="0 0 20 20" fill="none" id="instagram" xmlns="http://www.w3.org/2000/svg">
<path d="M-6.01032e-07 6.25L-2.73196e-07 13.75C-1.22337e-07 17.2012 2.79875 20 6.25 20L13.75 20C17.2013 20 20 17.2012 20 13.75L20 6.25C20 2.79875 17.2012 -7.51891e-07 13.75 -6.01032e-07L6.25 -2.73196e-07C2.79875 -1.22337e-07 -7.51891e-07 2.79875 -6.01032e-07 6.25ZM13.75 1.875C16.1625 1.875 18.125 3.8375 18.125 6.25L18.125 13.75C18.125 16.1625 16.1625 18.125 13.75 18.125L6.25 18.125C3.8375 18.125 1.875 16.1625 1.875 13.75L1.875 6.25C1.875 3.8375 3.8375 1.875 6.25 1.875L13.75 1.875Z" fill="currentColor"/>
<path d="M5 10C5 12.7612 7.23875 15 10 15C12.7613 15 15 12.7612 15 10C15 7.23875 12.7612 5 10 5C7.23875 5 5 7.23875 5 10ZM13.125 10C13.125 11.7225 11.7225 13.125 10 13.125C8.27625 13.125 6.875 11.7225 6.875 10C6.875 8.2775 8.27625 6.875 10 6.875C11.7225 6.875 13.125 8.2775 13.125 10Z" fill="currentColor"/>
<path d="M5.29123 4.625C5.29123 4.25704 4.99295 3.95875 4.62499 3.95875C4.25703 3.95875 3.95874 4.25704 3.95874 4.625C3.95874 4.99296 4.25703 5.29125 4.62499 5.29125C4.99295 5.29125 5.29123 4.99296 5.29123 4.625Z" fill="currentColor"/>
</symbol>
<symbol fill="#781E0A" viewBox="0 0 24 24" id="jest" xmlns="http://www.w3.org/2000/svg"><title>Jest icon</title><path d="M22.251 11.82a3.117 3.117 0 0 0-2.328-3.01L22.911 0H8.104L11.1 8.838a3.116 3.116 0 0 0-2.244 2.988c0 1.043.52 1.967 1.313 2.536a8.279 8.279 0 0 1-1.084 1.244 8.14 8.14 0 0 1-2.55 1.647c-.834-.563-1.195-1.556-.869-2.446a3.11 3.11 0 0 0-.91-6.08 3.117 3.117 0 0 0-3.113 3.113c0 .848.347 1.626.903 2.182-.048.097-.097.195-.146.299-.465.959-.993 2.043-1.195 3.259-.403 2.432.257 4.384 1.849 5.489A5.093 5.093 0 0 0 5.999 24c1.827 0 3.682-.917 5.475-1.807 1.279-.632 2.599-1.292 3.898-1.612.48-.118.98-.187 1.508-.264 1.07-.153 2.175-.312 3.168-.89a4.482 4.482 0 0 0 2.182-3.091c.174-.994 0-1.994-.444-2.87.298-.48.465-1.042.465-1.647zm-1.355 0c0 .965-.785 1.75-1.75 1.75a1.753 1.753 0 0 1-1.085-3.126l.007-.007c.056-.042.118-.084.18-.125 0 0 .008 0 .008-.007.028-.014.055-.035.083-.05.007 0 .014-.006.021-.006.028-.014.063-.028.097-.042.035-.014.07-.027.098-.041.007 0 .013-.007.02-.007.028-.007.056-.021.084-.028.007 0 .02-.007.028-.007.034-.007.062-.014.097-.02h.007l.104-.022c.007 0 .02 0 .028-.007.028 0 .055-.007.083-.007h.035c.035 0 .07-.007.111-.007h.09c.028 0 .05 0 .077.007h.014c.055.007.111.014.167.028a1.766 1.766 0 0 1 1.396 1.723zM10.043 1.39h10.93l-2.509 7.4c-.104.02-.208.055-.312.09l-2.64-5.385-2.648 5.35c-.104-.034-.216-.055-.327-.076l-2.494-7.38zm4.968 9.825a3.083 3.083 0 0 0-.938-1.668l1.438-2.904 1.452 2.967c-.43.43-.743.98-.868 1.605H15.01zm-3.481-1.098c.034-.007.062-.014.097-.02h.02c.029-.008.056-.008.084-.015h.028c.028 0 .049-.007.076-.007h.271c.028 0 .049.007.07.007.014 0 .02 0 .035.007.027.007.048.007.076.014.007 0 .014 0 .028.007l.097.02h.007c.028.008.056.015.083.029.007 0 .014.007.028.007.021.007.049.014.07.027.007 0 .014.007.02.007.028.014.056.021.084.035h.007a.374.374 0 0 1 .09.049h.007c.028.014.056.034.084.048.007 0 .007.007.013.007.028.014.05.035.077.049l.007.007c.083.062.16.132.236.201l.007.007a1.747 1.747 0 0 1 .48 1.209 1.752 1.752 0 0 1-3.502 0 1.742 1.742 0 0 1 1.32-1.695zm-6.838-.049c.966 0 1.751.786 1.751 1.751s-.785 1.751-1.75 1.751-1.752-.785-1.752-1.75.786-1.752 1.751-1.752zm16.163 6.025a3.07 3.07 0 0 1-1.508 2.133c-.758.438-1.689.577-2.669.716a17.29 17.29 0 0 0-1.64.291c-1.445.355-2.834 1.05-4.182 1.717-1.724.854-3.35 1.66-4.857 1.66a3.645 3.645 0 0 1-2.154-.688c-1.529-1.056-1.453-3.036-1.272-4.12.167-1.015.632-1.966 1.077-2.877.028-.055.049-.104.077-.16.152.056.312.098.479.126-.264 1.473.486 2.994 1.946 3.745l.264.139.284-.104c1.216-.431 2.342-1.133 3.336-2.071a9.334 9.334 0 0 0 1.445-1.716c.16.027.32.034.48.034a3.117 3.117 0 0 0 3.008-2.327h1.167a3.109 3.109 0 0 0 3.01 2.327c.576 0 1.11-.16 1.57-.43.18.52.236 1.063.139 1.605z"/></symbol>
<symbol viewBox="0 0 65 65" fill="none" id="js" xmlns="http://www.w3.org/2000/svg">
<path d="M0 0H65V65H0V0Z" fill="#F7DF1E"/>
<path d="M17.0909 54.3188L22.0651 51.3084C23.0247 53.0099 23.8977 54.4495 25.9916 54.4495C27.9988 54.4495 29.2642 53.6643 29.2642 50.6104V29.8413H35.3726V50.6967C35.3726 57.0234 31.6641 59.9031 26.2535 59.9031C21.367 59.9031 18.5306 57.3723 17.0908 54.3183" fill="black"/>
<path d="M38.6905 53.6641L43.6641 50.7844C44.9734 52.9226 46.6751 54.4932 49.6855 54.4932C52.2165 54.4932 53.8304 53.2278 53.8304 51.4825C53.8304 49.3881 52.1725 48.6463 49.38 47.425L47.8533 46.7701C43.4462 44.8943 40.5228 42.5382 40.5228 37.564C40.5228 32.9826 44.0133 29.4919 49.4675 29.4919C53.3508 29.4919 56.1432 30.8447 58.1501 34.3789L53.3941 37.433C52.3469 35.557 51.2128 34.8153 49.4676 34.8153C47.6787 34.8153 46.5441 35.9497 46.5441 37.433C46.5441 39.2656 47.6787 40.0075 50.2963 41.142L51.8233 41.7964C57.0155 44.0218 59.939 46.2904 59.939 51.3952C59.939 56.8932 55.6195 59.9035 49.8165 59.9035C44.1444 59.9035 40.4792 57.1984 38.6906 53.6641" fill="black"/>
</symbol>
<symbol viewBox="0 0 14 25" fill="none" id="mobile_dev" xmlns="http://www.w3.org/2000/svg">
<path d="M11.7188 0H1.5625C1.14827 0.000542615 0.751153 0.165337 0.458245 0.458245C0.165337 0.751153 0.000542615 1.14827 0 1.5625V22.6562C0.000542615 23.0705 0.165337 23.4676 0.458245 23.7605C0.751153 24.0534 1.14827 24.2182 1.5625 24.2188H11.7188C12.133 24.2182 12.5301 24.0534 12.823 23.7605C13.1159 23.4676 13.2807 23.0705 13.2812 22.6562V1.5625C13.2807 1.14827 13.1159 0.751153 12.823 0.458245C12.5301 0.165337 12.133 0.000542615 11.7188 0ZM8.46875 0.78125L8.24902 1.5625H4.99268L4.79736 0.78125H8.46875ZM12.5 22.6562C12.4997 22.8634 12.4173 23.0619 12.2709 23.2084C12.1244 23.3548 11.9259 23.4372 11.7188 23.4375H1.5625C1.35538 23.4372 1.15683 23.3548 1.01037 23.2084C0.863918 23.0619 0.781521 22.8634 0.78125 22.6562V1.5625C0.781521 1.35538 0.863918 1.15683 1.01037 1.01037C1.15683 0.863918 1.35538 0.781521 1.5625 0.78125H3.9917L4.30859 2.04785C4.32972 2.13236 4.37848 2.20738 4.44713 2.261C4.51579 2.31461 4.60039 2.34374 4.6875 2.34375H8.54492C8.63005 2.34375 8.71285 2.31594 8.78071 2.26455C8.84858 2.21317 8.89781 2.14102 8.9209 2.05908L9.28027 0.78125H11.7188C11.9259 0.781521 12.1244 0.863918 12.2709 1.01037C12.4173 1.15683 12.4997 1.35538 12.5 1.5625V22.6562Z" fill="currentColor"/>
<path d="M4.6875 21.875H1.95312C1.84952 21.875 1.75017 21.9162 1.67691 21.9894C1.60365 22.0627 1.5625 22.162 1.5625 22.2656C1.5625 22.3692 1.60365 22.4686 1.67691 22.5418C1.75017 22.6151 1.84952 22.6562 1.95312 22.6562H4.6875C4.7911 22.6562 4.89046 22.6151 4.96371 22.5418C5.03697 22.4686 5.07812 22.3692 5.07812 22.2656C5.07812 22.162 5.03697 22.0627 4.96371 21.9894C4.89046 21.9162 4.7911 21.875 4.6875 21.875Z" fill="currentColor"/>
<path d="M6.25 21.875H5.85938C5.75577 21.875 5.65642 21.9162 5.58316 21.9894C5.5099 22.0627 5.46875 22.162 5.46875 22.2656C5.46875 22.3692 5.5099 22.4686 5.58316 22.5418C5.65642 22.6151 5.75577 22.6562 5.85938 22.6562H6.25C6.3536 22.6562 6.45296 22.6151 6.52621 22.5418C6.59947 22.4686 6.64062 22.3692 6.64062 22.2656C6.64062 22.162 6.59947 22.0627 6.52621 21.9894C6.45296 21.9162 6.3536 21.875 6.25 21.875Z" fill="currentColor"/>
<path d="M8.01349 9.82123C7.9695 9.79484 7.92074 9.77737 7.87001 9.76982C7.81927 9.76227 7.76754 9.76479 7.71777 9.77723C7.668 9.78967 7.62117 9.81179 7.57996 9.84233C7.53874 9.87287 7.50394 9.91123 7.47755 9.95522L5.13379 13.8615C5.08049 13.9503 5.06466 14.0567 5.08979 14.1572C5.11492 14.2577 5.17894 14.3441 5.26778 14.3974C5.35662 14.4507 5.46299 14.4665 5.5635 14.4414C5.664 14.4163 5.75041 14.3522 5.80372 14.2634L8.14747 10.3572C8.17386 10.3132 8.19134 10.2644 8.19889 10.2137C8.20644 10.1629 8.20392 10.1112 8.19148 10.0615C8.17904 10.0117 8.15691 9.96486 8.12637 9.92364C8.09583 9.88242 8.05748 9.84762 8.01349 9.82123Z" fill="currentColor"/>
<path d="M9.28936 9.91206C9.2573 9.87201 9.21766 9.83866 9.17271 9.81392C9.12776 9.78918 9.07838 9.77354 9.02739 9.76788C8.9244 9.75646 8.82109 9.78643 8.74019 9.85118C8.65929 9.91593 8.60743 10.0102 8.59601 10.1132C8.58459 10.2161 8.61455 10.3194 8.6793 10.4003L10.0465 12.1093L8.6793 13.8183C8.61455 13.8992 8.58459 14.0025 8.59601 14.1055C8.60743 14.2085 8.65929 14.3027 8.74019 14.3675C8.82109 14.4322 8.9244 14.4622 9.02739 14.4508C9.13037 14.4394 9.22461 14.3875 9.28936 14.3066L10.8519 12.3535C10.9073 12.2842 10.9376 12.1981 10.9376 12.1093C10.9376 12.0206 10.9073 11.9345 10.8519 11.8652L9.28936 9.91206Z" fill="currentColor"/>
<path d="M3.99182 14.3066C4.05657 14.3875 4.15081 14.4393 4.2538 14.4508C4.35679 14.4622 4.46009 14.4322 4.54099 14.3675C4.62189 14.3027 4.67375 14.2085 4.68517 14.1055C4.69659 14.0025 4.66663 13.8992 4.60188 13.8183L3.23469 12.1093L4.60188 10.4003C4.63394 10.3603 4.6578 10.3143 4.67209 10.265C4.68638 10.2158 4.69083 10.1641 4.68517 10.1131C4.67952 10.0622 4.66388 10.0128 4.63914 9.96782C4.6144 9.92287 4.58105 9.88324 4.54099 9.85118C4.50093 9.81911 4.45495 9.79526 4.40568 9.78097C4.3564 9.76667 4.30479 9.76223 4.2538 9.76788C4.2028 9.77354 4.15342 9.78918 4.10847 9.81392C4.06352 9.83866 4.02388 9.87201 3.99182 9.91206L2.42932 11.8652C2.37385 11.9345 2.34363 12.0206 2.34363 12.1093C2.34363 12.1981 2.37385 12.2842 2.42932 12.3535L3.99182 14.3066Z" fill="currentColor"/>
</symbol>
<symbol viewBox="0 0 72 65" fill="none" id="react" xmlns="http://www.w3.org/2000/svg">
<path d="M0.212097 32.4294C0.212097 37.8596 5.48904 42.9288 13.8086 45.7861C12.1473 54.1903 13.5108 60.9639 18.0654 63.6034C22.747 66.3162 29.7215 64.4383 36.3412 58.624C42.7938 64.2036 49.3154 66.3995 53.8657 63.7525C58.5428 61.0319 59.9654 53.7988 58.2581 45.1323C66.9234 42.2536 71.7705 37.931 71.7705 32.4294C71.7705 27.1252 66.4837 22.5363 58.2764 19.6972C60.1144 10.6726 58.557 4.0633 53.8139 1.31488C49.2411 -1.33477 42.6438 0.974672 36.0962 6.70042C29.2846 0.622991 22.7524 -1.23252 18.0139 1.52391C13.4455 4.18109 12.1419 11.0779 13.8086 19.6376C5.76996 22.4539 0.212097 27.1464 0.212097 32.4294Z" fill="white"/>
<path d="M56.5381 22.5166C55.8789 22.2885 55.1958 22.0728 54.4924 21.8688C54.608 21.3947 54.7141 20.9267 54.8084 20.4667C56.357 12.9133 55.3445 6.82827 51.887 4.82481C48.5718 2.90376 43.1499 4.90677 37.674 9.69525C37.1475 10.1557 36.6194 10.6432 36.0916 11.1541C35.7399 10.8161 35.3888 10.4894 35.0386 10.177C29.2998 5.0568 23.5474 2.8991 20.0934 4.90836C16.7813 6.83498 15.8004 12.5555 17.1944 19.7139C17.329 20.4053 17.4863 21.1114 17.6643 21.8293C16.8501 22.0616 16.0642 22.3091 15.3122 22.5725C8.584 24.9296 4.28708 28.6237 4.28708 32.4554C4.28708 36.4129 8.89983 40.3823 15.9078 42.7892C16.4608 42.9791 17.0346 43.1587 17.626 43.3292C17.4341 44.1057 17.2671 44.8665 17.1269 45.6086C15.7978 52.6428 16.8358 58.2282 20.1391 60.1427C23.5511 62.1198 29.2774 60.0875 34.8533 55.1899C35.294 54.8028 35.7363 54.3922 36.1794 53.9619C36.7537 54.5176 37.3271 55.0435 37.8974 55.5368C43.2984 60.207 48.6327 62.0928 51.933 60.173C55.3416 58.1902 56.4493 52.1902 55.0112 44.8902C54.9013 44.3326 54.7735 43.7631 54.6299 43.1834C55.0321 43.0639 55.4269 42.9406 55.8118 42.8124C63.0972 40.3869 67.8373 36.4658 67.8373 32.4554C67.8373 28.6098 63.4018 24.8908 56.5381 22.5166Z" fill="#53C1DE"/>
<path d="M54.958 40.2229C54.6105 40.3385 54.2539 40.4502 53.8906 40.5586C53.0863 38.0001 52.0009 35.2795 50.6725 32.4687C51.9401 29.7248 52.9836 27.039 53.7654 24.4971C54.4155 24.6861 55.0465 24.8855 55.6545 25.0959C61.5353 27.1302 65.1225 30.1379 65.1225 32.4554C65.1225 34.924 61.2484 38.1285 54.958 40.2229ZM52.3479 45.4199C52.9838 48.6479 53.0747 51.5663 52.6534 53.8478C52.2749 55.8979 51.5138 57.2647 50.5726 57.8121C48.5699 58.977 44.2869 57.4628 39.668 53.4689C39.1385 53.011 38.6051 52.5222 38.0701 52.0048C39.8607 50.0369 41.6504 47.7491 43.397 45.2084C46.4692 44.9344 49.3717 44.4866 52.0039 43.8752C52.1335 44.4007 52.2487 44.916 52.3479 45.4199ZM25.9528 57.6108C23.9961 58.3052 22.4376 58.3251 21.4956 57.7793C19.491 56.6175 18.6577 52.133 19.7944 46.1174C19.9246 45.4284 20.0796 44.7208 20.2582 43.9974C22.8615 44.5758 25.7427 44.9921 28.8223 45.2429C30.5807 47.7291 32.4221 50.0144 34.2777 52.0153C33.8722 52.4086 33.4684 52.783 33.0668 53.1358C30.6012 55.3015 28.1303 56.838 25.9528 57.6108ZM16.7858 40.2078C13.687 39.1436 11.1279 37.7604 9.3738 36.251C7.79761 34.8946 7.00182 33.548 7.00182 32.4554C7.00182 30.1301 10.4518 27.1643 16.2058 25.1484C16.904 24.9038 17.6349 24.6733 18.3933 24.4568C19.1885 27.0561 20.2317 29.7737 21.4906 32.5218C20.2154 35.3107 19.1574 38.0716 18.3544 40.7013C17.8137 40.5452 17.2898 40.3808 16.7858 40.2078ZM19.8587 19.19C18.6643 13.0568 19.4575 8.43022 21.4535 7.26925C23.5796 6.03246 28.2809 7.79586 33.2359 12.2169C33.5527 12.4994 33.8707 12.7952 34.1895 13.1012C32.3431 15.0934 30.5186 17.3615 28.7758 19.833C25.787 20.1114 22.926 20.5585 20.2955 21.1573C20.1301 20.4888 19.9836 19.8321 19.8587 19.19ZM47.2714 25.9916C46.6425 24.9002 45.997 23.8346 45.3388 22.7981C47.3665 23.0556 49.3092 23.3975 51.1336 23.8159C50.5858 25.5798 49.9032 27.424 49.0996 29.3146C48.5231 28.2149 47.9134 27.1061 47.2714 25.9916ZM36.0925 15.0508C37.3447 16.4139 38.5988 17.9359 39.8322 19.5872C38.5893 19.5283 37.3309 19.4976 36.0622 19.4976C34.8055 19.4976 33.5564 19.5276 32.3212 19.5855C33.5558 17.9496 34.8207 16.4296 36.0925 15.0508ZM24.8421 26.0105C24.2139 27.1049 23.6155 28.2077 23.0481 29.3125C22.2576 27.4285 21.5812 25.5759 21.0287 23.7871C22.8419 23.3793 24.7755 23.046 26.7902 22.7933C26.1228 23.8393 25.4719 24.9128 24.8421 26.0102V26.0105ZM26.8482 42.3121C24.7666 42.0787 22.804 41.7625 20.9913 41.366C21.5526 39.5452 22.2439 37.6531 23.0512 35.7285C23.6201 36.8325 24.2208 37.9357 24.8528 39.0326H24.8529C25.4967 40.1501 26.1637 41.2447 26.8482 42.3121ZM36.1676 50.0523C34.8809 48.6573 33.5975 47.1142 32.344 45.4543C33.5608 45.5023 34.8014 45.5269 36.0622 45.5269C37.3575 45.5269 38.638 45.4975 39.8984 45.4412C38.6609 47.1309 37.4114 48.6764 36.1676 50.0523ZM49.1255 35.6304C49.9749 37.5758 50.6909 39.4581 51.2595 41.2478C49.4169 41.6702 47.4275 42.0104 45.3314 42.2632C45.9911 41.2127 46.6423 40.1288 47.2822 39.0139C47.9296 37.8858 48.5443 36.7561 49.1255 35.6304ZM44.9306 37.651C43.9372 39.3818 42.9173 41.034 41.8819 42.5936C39.9961 42.7291 38.0479 42.7989 36.0622 42.7989C34.0846 42.7989 32.1609 42.7372 30.3084 42.6164C29.2313 41.0363 28.1893 39.3792 27.2022 37.6659H27.2024C26.218 35.9573 25.3119 34.2342 24.4909 32.5209C25.3116 30.8035 26.2153 29.0785 27.1942 27.373L27.1939 27.3733C28.1754 25.6632 29.2082 24.0142 30.2754 22.444C32.1654 22.3004 34.1035 22.2255 36.0621 22.2255H36.0622C38.0297 22.2255 39.9702 22.301 41.8597 22.4458C42.9105 24.0045 43.9364 25.6482 44.9217 27.3585C45.9181 29.0881 46.8335 30.8016 47.6613 32.4821C46.836 34.1915 45.9226 35.9223 44.9306 37.651ZM50.531 7.18809C52.6591 8.42124 53.4867 13.3945 52.1496 19.9161C52.0643 20.3322 51.9683 20.7561 51.864 21.1856C49.2274 20.5743 46.3644 20.1194 43.3668 19.8369C41.6206 17.3382 39.8111 15.0666 37.9947 13.0999C38.4831 12.6279 38.9707 12.1778 39.4563 11.753C44.148 7.65025 48.5331 6.03041 50.531 7.18809Z" fill="white"/>
<path d="M36.0622 26.7532C39.1963 26.7532 41.737 29.3061 41.737 32.4554C41.737 35.6046 39.1963 38.1576 36.0622 38.1576C32.9281 38.1576 30.3874 35.6046 30.3874 32.4554C30.3874 29.3061 32.9281 26.7532 36.0622 26.7532Z" fill="#53C1DE"/>
</symbol>
<symbol fill="#60258E" viewBox="0 0 32 32" id="redux" xmlns="http://www.w3.org/2000/svg">
  <path d="M22.177 22.005c1.161-0.099 2.057-1.12 2-2.339-0.063-1.219-1.063-2.197-2.276-2.197h-0.084c-1.255 0.041-2.239 1.099-2.197 2.359 0.041 0.641 0.301 1.156 0.661 1.536-1.401 2.719-3.495 4.715-6.677 6.396-2.135 1.115-4.391 1.537-6.588 1.235-1.839-0.255-3.276-1.077-4.156-2.396-1.319-2-1.439-4.151-0.339-6.312 0.801-1.557 2-2.699 2.796-3.256-0.197-0.52-0.437-1.395-0.557-2.057-5.916 4.235-5.312 10.032-3.515 12.767 1.339 2 4.072 3.276 7.067 3.276 0.803 0 1.641-0.057 2.459-0.261 5.199-1 9.131-4.115 11.385-8.708zM29.307 17.011c-3.093-3.636-7.651-5.636-12.843-5.636h-0.683c-0.333-0.735-1.115-1.197-1.995-1.197h-0.057c-1.26 0-2.24 1.083-2.199 2.339 0.043 1.197 1.057 2.197 2.276 2.197h0.1c0.9-0.041 1.677-0.599 2-1.401h0.739c3.079 0 5.991 0.901 8.652 2.657 2.031 1.337 3.495 3.099 4.312 5.197 0.719 1.713 0.677 3.396-0.063 4.797-1.135 2.192-3.057 3.353-5.588 3.353-1.599 0-3.156-0.5-3.959-0.859-0.479 0.396-1.281 1.057-1.86 1.459 1.761 0.796 3.537 1.255 5.256 1.255 3.896 0 6.792-2.193 7.891-4.312 1.197-2.396 1.099-6.433-1.959-9.891zM8.651 22.724c0.043 1.197 1.057 2.197 2.281 2.197h0.079c1.281-0.041 2.255-1.099 2.197-2.359 0-1.199-1.036-2.199-2.255-2.199h-0.084c-0.077 0-0.197 0-0.301 0.043-1.656-2.797-2.355-5.797-2.095-9.032 0.157-2.437 0.959-4.552 2.396-6.312 1.199-1.495 3.453-2.24 4.995-2.276 4.313-0.084 6.115 5.296 6.251 7.432l2 0.599c-0.464-6.552-4.536-9.989-8.432-9.989-3.656 0-7.032 2.656-8.391 6.552-1.855 5.199-0.636 10.188 1.64 14.188-0.197 0.255-0.317 0.719-0.281 1.156z"/>
</symbol>
<symbol fill="#FF4785" viewBox="0 0 24 24" id="storybook" xmlns="http://www.w3.org/2000/svg"><title>Storybook icon</title><path d="M16.34.24l-.12 2.71a.18.18 0 0 0 .29.15l1.06-.8.9.7a.18.18 0 0 0 .28-.14L18.65.1l1.33-.1a1.2 1.2 0 0 1 1.28 1.2v21.6A1.2 1.2 0 0 1 20 24l-16.1-.72a1.2 1.2 0 0 1-1.15-1.16L2 2.32a1.2 1.2 0 0 1 1.13-1.27l13.2-.83.01.02zM13.27 9.3c0 .47 3.16.24 3.59-.08 0-3.2-1.72-4.89-4.86-4.89-3.15 0-4.9 1.72-4.9 4.29 0 4.45 6 4.53 6 6.96 0 .7-.32 1.1-1.05 1.1-.96 0-1.35-.49-1.3-2.16 0-.36-3.65-.48-3.77 0-.27 4.03 2.23 5.2 5.1 5.2 2.79 0 4.97-1.49 4.97-4.18 0-4.77-6.1-4.64-6.1-7 0-.97.72-1.1 1.13-1.1.45 0 1.25.07 1.19 1.87z"/></symbol>
<symbol viewBox="0 0 30 30" fill="none" id="telegram" xmlns="http://www.w3.org/2000/svg">
<path d="M15 30C23.2863 30 30 23.2863 30 15C30 6.71375 23.2863 0 15 0C6.71375 0 0 6.71375 0 15C0 23.2863 6.71375 30 15 30ZM6.86375 14.675L21.3263 9.09875C21.9975 8.85625 22.5837 9.2625 22.3662 10.2775L22.3675 10.2762L19.905 21.8775C19.7225 22.7 19.2337 22.9 18.55 22.5125L14.8 19.7487L12.9912 21.4913C12.7912 21.6913 12.6225 21.86 12.235 21.86L12.5013 18.0438L19.4513 11.765C19.7537 11.4987 19.3837 11.3488 18.985 11.6138L10.3963 17.0212L6.69375 15.8663C5.89 15.6112 5.8725 15.0625 6.86375 14.675Z" fill="currentColor"/>
</symbol>
<symbol viewBox="0 0 32 32" id="typescript" xmlns="http://www.w3.org/2000/svg"><title>file_type_typescript_official</title><rect x="2" y="2" width="28" height="28" rx="1.312" style="fill:#3178c6"/>
<path d="M18.245,23.759v3.068a6.492,6.492,0,0,0,1.764.575,11.56,11.56,0,0,0,2.146.192,9.968,9.968,0,0,0,2.088-.211,5.11,5.11,0,0,0,1.735-.7,3.542,3.542,0,0,0,1.181-1.266,4.469,4.469,0,0,0,.186-3.394,3.409,3.409,0,0,0-.717-1.117,5.236,5.236,0,0,0-1.123-.877,12.027,12.027,0,0,0-1.477-.734q-.6-.249-1.08-.484a5.5,5.5,0,0,1-.813-.479,2.089,2.089,0,0,1-.516-.518,1.091,1.091,0,0,1-.181-.618,1.039,1.039,0,0,1,.162-.571,1.4,1.4,0,0,1,.459-.436,2.439,2.439,0,0,1,.726-.283,4.211,4.211,0,0,1,.956-.1,5.942,5.942,0,0,1,.808.058,6.292,6.292,0,0,1,.856.177,5.994,5.994,0,0,1,.836.3,4.657,4.657,0,0,1,.751.422V13.9a7.509,7.509,0,0,0-1.525-.4,12.426,12.426,0,0,0-1.9-.129,8.767,8.767,0,0,0-2.064.235,5.239,5.239,0,0,0-1.716.733,3.655,3.655,0,0,0-1.171,1.271,3.731,3.731,0,0,0-.431,1.845,3.588,3.588,0,0,0,.789,2.34,6,6,0,0,0,2.395,1.639q.63.26,1.175.509a6.458,6.458,0,0,1,.942.517,2.463,2.463,0,0,1,.626.585,1.2,1.2,0,0,1,.23.719,1.1,1.1,0,0,1-.144.552,1.269,1.269,0,0,1-.435.441,2.381,2.381,0,0,1-.726.292,4.377,4.377,0,0,1-1.018.105,5.773,5.773,0,0,1-1.969-.35A5.874,5.874,0,0,1,18.245,23.759Zm-5.154-7.638h4V13.594H5.938v2.527H9.92V27.375h3.171Z" style="fill:#ffffff;fill-rule:evenodd"/></symbol>
<symbol viewBox="0 0 21 25" fill="none" id="university" xmlns="http://www.w3.org/2000/svg">
<path d="M17.7169 16.333L16.2497 15.9022L13.0575 13.8172V13.3394C13.9817 12.6423 14.6164 11.5767 14.7343 10.3553C15.1978 10.2807 15.553 9.87789 15.553 9.39371V8.07999C15.553 8.07491 15.5524 8.06993 15.5522 8.06486V6.4007C15.7369 6.26847 15.854 6.05309 15.854 5.81149V4.28854L18.057 3.91329C18.4191 3.85162 18.6794 3.56407 18.705 3.19772C18.7305 2.83136 18.5126 2.51046 18.1626 2.39918L10.736 0.0369751C10.5811 -0.0123413 10.4174 -0.0122925 10.2625 0.0369263L2.83579 2.39918C2.48583 2.51046 2.26787 2.83136 2.2934 3.19767C2.30961 3.43043 2.42084 3.63112 2.59252 3.76256V5.75411H2.57436C2.15615 5.75411 1.81591 6.09435 1.81591 6.51256V7.50113L1.32631 10.3748C1.24169 10.8718 1.62451 11.3267 2.12988 11.3267H3.78754C4.29179 11.3267 4.67592 10.8729 4.59111 10.3747L4.10151 7.50113V6.51256C4.10151 6.09435 3.76127 5.75411 3.34306 5.75411H3.32495V3.97858L5.14594 4.28873V5.81149C5.14594 6.05206 5.26259 6.2671 5.44638 6.39952L5.44707 8.08014V9.39371C5.44707 9.87794 5.80219 10.2807 6.26572 10.3553C6.38364 11.576 7.01762 12.6411 7.94096 13.3383V13.8183L4.74946 15.9029L3.28339 16.3332C1.71459 16.7937 0.606879 18.2339 0.606879 19.9082V20.9996C0.606879 21.2018 0.770795 21.3658 0.97309 21.3658C1.17538 21.3658 1.3393 21.2019 1.3393 20.9996V19.9082C1.3393 18.5886 2.22353 17.4075 3.48969 17.0359L4.85571 16.635L10.313 19.8778C10.4238 19.9436 10.5704 19.9471 10.6872 19.8778L16.1448 16.6348L17.5107 17.0358C18.7767 17.4074 19.6609 18.5885 19.6609 19.9079V23.4449C19.6609 23.8986 19.2918 24.2677 18.8381 24.2677H17.224V22.6892C17.224 22.4869 17.0601 22.323 16.8578 22.323C16.6556 22.323 16.4916 22.4869 16.4916 22.6892V24.2677H4.50683V22.6892C4.50683 22.4869 4.34291 22.323 4.14062 22.323C3.93832 22.323 3.77441 22.4869 3.77441 22.6892V24.2677H2.16196C1.70829 24.2677 1.3392 23.8986 1.3392 23.4449V22.7114C1.3392 22.5092 1.17529 22.3452 0.972992 22.3452C0.770697 22.3452 0.606781 22.5091 0.606781 22.7114V23.4449C0.606781 24.3024 1.30439 25 2.16191 25H18.838C19.6956 25 20.3932 24.3024 20.3932 23.4449V19.9079C20.3932 18.2731 19.3232 16.8046 17.7169 16.333ZM3.78749 10.5943H2.12988C2.07866 10.5943 2.03959 10.5485 2.04828 10.4977L2.49116 7.8983H3.42621L3.86909 10.4977C3.87773 10.5484 3.83896 10.5943 3.78749 10.5943ZM3.36909 6.51256V7.16593H2.54824V6.51256C2.54824 6.49816 2.55991 6.48649 2.57431 6.48649H3.34296C3.35742 6.48644 3.36909 6.49816 3.36909 6.51256ZM9.19028 18.2213L9.33603 18.4453L5.59731 16.2237L7.97041 14.6737C8.07802 15.9364 8.49423 17.1515 9.19028 18.2213ZM9.18774 16.6404C10.0497 16.7629 10.9498 16.763 11.8123 16.6404C11.6456 17.0505 11.4402 17.4462 11.1958 17.8219L10.5 18.8914L9.80415 17.8219C9.55976 17.4462 9.35439 17.0505 9.18774 16.6404ZM11.8097 18.2213C12.5058 17.1515 12.922 15.9364 13.0295 14.6737L15.4026 16.2237L11.664 18.4453L11.8097 18.2213ZM13.9519 6.53707H14.8198V7.71373H14.389C14.1479 7.71373 13.9518 7.51764 13.9518 7.27657V6.53707H13.9519ZM3.05776 3.09713L10.4846 0.734827C10.4941 0.731799 10.5043 0.73175 10.514 0.734876L17.9408 3.09713C17.9561 3.10201 17.9771 3.10865 17.9745 3.14679C17.9718 3.18488 17.95 3.18854 17.9341 3.19127L15.4787 3.60948L14.5568 3.49547C14.3562 3.47062 14.1733 3.61329 14.1484 3.81398C14.1236 4.01471 14.2663 4.19752 14.4669 4.22233L15.1217 4.30333V5.8047L5.87832 5.80436V4.30328L9.66772 3.83439C10.2197 3.76617 10.7792 3.76617 11.3308 3.83439L12.765 4.01178C12.9657 4.03663 13.1486 3.89401 13.1734 3.69332C13.1983 3.49259 13.0557 3.30978 12.855 3.28492L11.4207 3.10753C10.8096 3.0319 10.1894 3.0319 9.57783 3.10753L5.5205 3.60958L3.0643 3.19127C3.04838 3.18854 3.02665 3.18488 3.02397 3.14679C3.02133 3.10865 3.04238 3.10197 3.05776 3.09713ZM6.17924 7.71373L6.17875 6.53707H7.04814V7.27662C7.04814 7.51764 6.85205 7.71378 6.61093 7.71378H6.17924V7.71373ZM6.98525 10.1671C6.9664 9.86886 6.71855 9.63527 6.42104 9.63527C6.28779 9.63527 6.17939 9.52687 6.17939 9.39366V8.44615H6.61093C7.25581 8.44615 7.78051 7.9215 7.78051 7.27662V6.53707H13.2194V7.27662C13.2194 7.9215 13.7441 8.44615 14.389 8.44615H14.8206V9.39366C14.8206 9.52687 14.7122 9.63527 14.5789 9.63527C14.2814 9.63527 14.0335 9.86886 14.0147 10.1671C13.898 12.0162 12.3542 13.4647 10.4999 13.4647C8.6457 13.4647 7.1019 12.0162 6.98525 10.1671ZM10.5 14.197C11.1513 14.197 11.7704 14.0481 12.3251 13.7833V14.0154C12.3251 14.6415 12.2406 15.2591 12.078 15.8548C11.0828 16.0446 9.95761 16.0523 8.92202 15.8548C8.75937 15.2592 8.6749 14.6416 8.6749 14.0154C8.6749 14.0076 8.67382 14.0001 8.67334 13.9924C8.67324 13.9909 8.67338 13.9894 8.67329 13.9879V13.7826C9.22841 14.0478 9.84804 14.197 10.5 14.197Z" fill="currentColor"/>
</symbol>
<symbol viewBox="0 0 25 24" fill="none" id="web_development" xmlns="http://www.w3.org/2000/svg">
<path d="M0 0V20.5205H8.02402V21.9877H6.55742V23.4526H18.4425V21.9877H16.9759V20.5205H25V0H0ZM15.511 21.9877H9.48897V20.5205H15.511V21.9877H15.511ZM23.5351 19.0556H1.46489V16.1222H23.5351V19.0556H23.5351ZM23.5351 14.6573H1.46489V1.46494H23.5351V14.6573H23.5351Z" fill="currentColor"/>
<path d="M9.95816 5.4134L8.92232 4.37756L5.23877 8.06111L8.92232 11.7446L9.95816 10.7088L7.31045 8.06111L9.95816 5.4134Z" fill="currentColor"/>
<path d="M16.0777 4.37756L15.0419 5.4134L17.6896 8.06111L15.0419 10.7088L16.0777 11.7446L19.7612 8.06111L16.0777 4.37756Z" fill="currentColor"/>
<path d="M12.6319 3.64405L10.9313 12.1931L12.3681 12.4789L14.0687 3.92986L12.6319 3.64405Z" fill="currentColor"/>
</symbol>
<symbol fill="#8ed6fb" viewBox="0 0 32 32" id="webpack" xmlns="http://www.w3.org/2000/svg">
  <path d="M28.021 24.161l-11.552 6.505v-5.068l7.198-3.943zM28.813 23.448v-13.609l-4.229 2.432v8.745zM3.901 24.161l11.552 6.505v-5.068l-7.198-3.943zM3.109 23.448v-13.609l4.229 2.432v8.745zM3.604 8.958l11.849-6.672v4.901l-7.646 4.188zM28.318 8.958l-11.849-6.672v4.901l7.646 4.188zM15.453 24.448l-7.099-3.891v-7.703l7.099 4.083zM16.469 24.448l7.099-3.891v-7.703l-7.099 4.083zM8.833 11.964l7.13-3.901 7.13 3.901-7.13 4.099z"/>
</symbol>
<symbol id="email" viewBox="0 0 60 60" fill="currentColor" xmlns="http://www.w3.org/2000/svg">
<path d="M0,8.5v2.291v38.418V51.5h60v-2.291V10.791V8.5H0z M36.625,30.564l-5.446,5.472c-0.662,0.615-1.698,0.614-2.332,0.026  l-5.473-5.498l0.048-0.047L3.647,10.5h52.719L36.577,30.518L36.625,30.564z M20.524,30.533L2,48.355V11.923L20.524,30.533z   M21.934,31.95l5.523,5.549c0.709,0.661,1.619,0.993,2.533,0.993c0.923,0,1.85-0.339,2.581-1.02l5.496-5.522L56.304,49.5H3.686  L21.934,31.95z M39.477,30.534L58,11.922v36.433L39.477,30.534z"/><g/><g/><g/><g/><g/><g/><g/><g/><g/><g/><g/><g/><g/><g/><g/>
</symbol>
</svg>